<?xml version="1.0" encoding="UTF-8"?>
<svg width="21px" height="21px" viewBox="0 0 21 21" version="1.1" xmlns="http://www.w3.org/2000/svg" xmlns:xlink="http://www.w3.org/1999/xlink">
    <title>FA545098-E751-4D5E-B2D1-3933C936A012</title>
    <g id="michrazim" stroke="none" stroke-width="1" fill="none" fill-rule="evenodd">
        <g id="Michrazim_contractor-1.0_Open" transform="translate(-197.000000, -1034.000000)">
            <g id="Comp/Michraz-Manhar-3.0-Copy" transform="translate(166.513245, 775.000000)">
                <g id="Group-3" transform="translate(12.500000, 222.750000)">
                    <g id="Group" transform="translate(18.000000, 36.604757)">
                        <path d="M6.5281443,6.19298805 L13.4718557,13.1366994 M6.5281443,13.1366994 L13.4718557,6.19298805" id="Combined-Shape" stroke="#394053" stroke-width="2" stroke-linecap="square" stroke-linejoin="round"></path>
                        <path d="M10,0 C15.5228475,0 20,4.4771525 20,10 C20,15.5228475 15.5228475,20 10,20 C4.4771525,20 0,15.5228475 0,10 C0,4.4771525 4.4771525,0 10,0 Z M10,0.8 C4.9189803,0.8 0.8,4.9189803 0.8,10 C0.8,15.0810197 4.9189803,19.2 10,19.2 C15.0810197,19.2 19.2,15.0810197 19.2,10 C19.2,4.9189803 15.0810197,0.8 10,0.8 Z" id="Combined-Shape" fill="#394053" fill-rule="nonzero"></path>
                    </g>
                </g>
            </g>
        </g>
    </g>
</svg>