<svg width="30" height="30" viewBox="0 0 30 30" fill="none" xmlns="http://www.w3.org/2000/svg">
<g id="google icon">
<mask id="mask0_345_4620" style="mask-type:alpha" maskUnits="userSpaceOnUse" x="0" y="0" width="30" height="30">
<circle id="Ellipse 34" cx="15" cy="15" r="15" fill="white"/>
</mask>
<g mask="url(#mask0_345_4620)">
<g id="Group 16639">
<g id="Clip path group">
<mask id="mask1_345_4620" style="mask-type:luminance" maskUnits="userSpaceOnUse" x="-2" y="-1" width="33" height="33">
<g id="c0799a4ae7">
<path id="Vector" d="M-1.00024 -0.804321H30.8352V31.028H-1.00024V-0.804321Z" fill="white"/>
</g>
</mask>
<g mask="url(#mask1_345_4620)">
<g id="Group">
<path id="Vector_2" d="M30.819 28.3765V1.8605C30.819 0.395893 29.6319 -0.791077 28.1673 -0.791077H1.65134C0.186821 -0.791077 -1.00024 0.395893 -1.00024 1.8605V28.3765C-1.00024 29.841 0.186821 31.0281 1.65134 31.0281H28.1673C29.6319 31.0281 30.819 29.841 30.819 28.3765Z" fill="#1C9957"/>
</g>
</g>
</g>
<g id="Clip path group_2">
<mask id="mask2_345_4620" style="mask-type:luminance" maskUnits="userSpaceOnUse" x="1" y="16" width="28" height="16">
<g id="ddb2617df1">
<path id="Vector_3" d="M1.54395 16.8729H28.2922V31.0279H1.54395V16.8729Z" fill="white"/>
</g>
</mask>
<g mask="url(#mask2_345_4620)">
<g id="Group_2">
<path id="Vector_4" d="M1.6509 31.0275H28.1669C29.6315 31.0275 14.9089 16.8857 14.9089 16.8857C14.9089 16.8857 0.186387 31.0275 1.6509 31.0275Z" fill="#3E7BF1"/>
</g>
</g>
</g>
<path id="Vector_5" d="M30.8189 28.3762V1.8602C30.8189 0.395593 16.677 15.1182 16.677 15.1182C16.677 15.1182 30.8189 29.8407 30.8189 28.3762Z" fill="#CBCCC9"/>
<g id="Clip path group_3">
<mask id="mask3_345_4620" style="mask-type:luminance" maskUnits="userSpaceOnUse" x="14" y="14" width="17" height="18">
<g id="a05cb90fdb">
<path id="Vector_6" d="M14.0138 14.2322H30.8354V31.0278H14.0138V14.2322Z" fill="white"/>
</g>
</mask>
<g mask="url(#mask3_345_4620)">
<g id="Group_3">
<path id="Vector_7" d="M28.1676 31.0275C29.6322 31.0275 30.8193 29.8404 30.8193 28.3759V28.1594L16.8939 14.2341L14.0258 17.1022L27.9511 31.0275H28.1676Z" fill="#EFEFEF"/>
</g>
</g>
</g>
<g id="Clip path group_4">
<mask id="mask4_345_4620" style="mask-type:luminance" maskUnits="userSpaceOnUse" x="-2" y="-1" width="33" height="33">
<g id="137826f8ed">
<path id="Vector_8" d="M-1.00024 -0.804321H30.8352V31.028H-1.00024V-0.804321Z" fill="white"/>
</g>
</mask>
<g mask="url(#mask4_345_4620)">
<g id="Group_4">
<path id="Vector_9" d="M30.819 1.8605C30.819 0.395893 29.6319 -0.791077 28.1673 -0.791077H27.9508L-1.00024 28.16V28.3765C-1.00024 29.841 0.186821 31.0281 1.65134 31.0281H1.86795L30.819 2.07702V1.8605Z" fill="#FFD73D"/>
</g>
</g>
</g>
<g id="Clip path group_5">
<mask id="mask5_345_4620" style="mask-type:luminance" maskUnits="userSpaceOnUse" x="15" y="-3" width="18" height="28">
<g id="d64017e8e4">
<path id="Vector_10" d="M15.2997 -2.96838H32.9999V24.4416H15.2997V-2.96838Z" fill="white"/>
</g>
</mask>
<g mask="url(#mask5_345_4620)">
<g id="Group_5">
<path id="Vector_11" d="M21.9999 4.99963C18.6861 4.99963 15.9999 7.7436 15.9999 11.1287C15.9999 15.3043 20.5995 16.8256 21.5997 23.2954C21.6639 23.7121 21.6687 23.9996 21.9999 23.9996C22.3311 23.9996 22.3359 23.7121 22.4001 23.2954C23.4003 16.8256 27.9999 15.3043 27.9999 11.1287C27.9999 7.7436 25.3137 4.99963 21.9999 4.99963Z" fill="#D73F35"/>
</g>
</g>
</g>
<path id="Vector_12" d="M22 8.99988C21.9672 8.99988 21.9345 9.00068 21.9019 9.00229C21.8691 9.00389 21.8365 9.0063 21.8039 9.00951C21.7714 9.01272 21.7389 9.01673 21.7065 9.02149C21.6741 9.02631 21.6419 9.03192 21.6098 9.03828C21.5777 9.04471 21.5458 9.05187 21.514 9.05977C21.4823 9.06774 21.4507 9.07651 21.4194 9.08601C21.3881 9.09546 21.357 9.10577 21.3262 9.11676C21.2954 9.12782 21.2649 9.13955 21.2346 9.15208C21.2044 9.16462 21.1745 9.17789 21.1448 9.19191C21.1153 9.20586 21.0861 9.22062 21.0572 9.236C21.0283 9.25143 20.9999 9.26755 20.9718 9.28441C20.9437 9.30126 20.9161 9.31874 20.8888 9.33695C20.8616 9.35511 20.8349 9.37394 20.8086 9.39345C20.7823 9.41296 20.7565 9.43309 20.7312 9.45384C20.7059 9.47458 20.6811 9.49601 20.6569 9.51793C20.6326 9.53991 20.6089 9.56251 20.5858 9.58567C20.5626 9.60882 20.54 9.63247 20.5181 9.65674C20.4961 9.681 20.4747 9.70576 20.454 9.73108C20.4332 9.7564 20.4131 9.78214 20.3936 9.80845C20.3741 9.83475 20.3552 9.86149 20.3371 9.88872C20.3189 9.91595 20.3014 9.94361 20.2845 9.97164C20.2677 9.99974 20.2516 10.0282 20.2361 10.057C20.2207 10.0859 20.206 10.1151 20.192 10.1448C20.178 10.1744 20.1647 10.2042 20.1522 10.2345C20.1397 10.2648 20.1279 10.2953 20.1169 10.3261C20.1059 10.3569 20.0956 10.3879 20.0861 10.4193C20.0766 10.4506 20.0679 10.4822 20.0599 10.5139C20.052 10.5456 20.0448 10.5776 20.0384 10.6097C20.032 10.6418 20.0264 10.674 20.0216 10.7064C20.0169 10.7388 20.0128 10.7713 20.0096 10.8038C20.0064 10.8364 20.004 10.869 20.0024 10.9017C20.0008 10.9344 20 10.9671 20 10.9998C20 11.0326 20.0008 11.0653 20.0024 11.098C20.004 11.1307 20.0064 11.1633 20.0096 11.1959C20.0128 11.2285 20.0169 11.2609 20.0216 11.2933C20.0264 11.3257 20.032 11.3579 20.0384 11.39C20.0448 11.4221 20.052 11.4541 20.0599 11.4858C20.0679 11.5176 20.0766 11.5491 20.0861 11.5804C20.0956 11.6118 20.1059 11.6428 20.1169 11.6736C20.1279 11.7044 20.1397 11.735 20.1522 11.7652C20.1647 11.7955 20.178 11.8254 20.192 11.855C20.206 11.8846 20.2207 11.9138 20.2361 11.9427C20.2516 11.9715 20.2677 12 20.2845 12.028C20.3014 12.0561 20.3189 12.0838 20.3371 12.111C20.3552 12.1382 20.3741 12.1649 20.3936 12.1912C20.4131 12.2175 20.4332 12.2434 20.454 12.2686C20.4747 12.2939 20.4961 12.3187 20.5181 12.343C20.54 12.3672 20.5626 12.3909 20.5858 12.4141C20.6089 12.4372 20.6326 12.4598 20.6569 12.4818C20.6811 12.5037 20.7059 12.5251 20.7312 12.5459C20.7565 12.5667 20.7823 12.5868 20.8086 12.6062C20.8349 12.6258 20.8616 12.6446 20.8888 12.6628C20.9161 12.681 20.9437 12.6985 20.9718 12.7153C20.9999 12.7321 21.0283 12.7483 21.0572 12.7637C21.0861 12.7791 21.1153 12.7938 21.1448 12.8078C21.1745 12.8218 21.2044 12.8351 21.2346 12.8476C21.2649 12.8601 21.2954 12.8719 21.3262 12.8829C21.357 12.894 21.3881 12.9042 21.4194 12.9137C21.4507 12.9233 21.4823 12.932 21.514 12.9399C21.5458 12.9479 21.5777 12.955 21.6098 12.9614C21.6419 12.9678 21.6741 12.9734 21.7065 12.9782C21.7389 12.983 21.7714 12.987 21.8039 12.9902C21.8365 12.9935 21.8691 12.9959 21.9019 12.9975C21.9345 12.9991 21.9672 12.9999 22 12.9999C22.0327 12.9999 22.0654 12.9991 22.0981 12.9975C22.1308 12.9959 22.1634 12.9935 22.196 12.9902C22.2286 12.987 22.261 12.983 22.2935 12.9782C22.3258 12.9734 22.358 12.9678 22.3901 12.9614C22.4223 12.955 22.4542 12.9479 22.4859 12.9399C22.5177 12.932 22.5492 12.9233 22.5806 12.9137C22.6119 12.9042 22.6429 12.894 22.6737 12.8829C22.7046 12.8719 22.7351 12.8601 22.7653 12.8476C22.7956 12.8351 22.8255 12.8218 22.8551 12.8078C22.8847 12.7938 22.9139 12.7791 22.9428 12.7637C22.9716 12.7483 23.0001 12.7321 23.0282 12.7153C23.0563 12.6985 23.0839 12.681 23.1111 12.6628C23.1383 12.6446 23.1651 12.6258 23.1914 12.6062C23.2177 12.5868 23.2435 12.5667 23.2687 12.5459C23.2941 12.5251 23.3188 12.5037 23.3431 12.4818C23.3673 12.4598 23.3911 12.4372 23.4142 12.4141C23.4373 12.3909 23.4599 12.3672 23.4819 12.343C23.5039 12.3187 23.5252 12.2939 23.546 12.2686C23.5668 12.2434 23.5869 12.2175 23.6064 12.1912C23.6259 12.1649 23.6447 12.1382 23.6629 12.111C23.6811 12.0838 23.6986 12.0561 23.7154 12.028C23.7323 12 23.7484 11.9715 23.7638 11.9427C23.7793 11.9138 23.794 11.8846 23.808 11.855C23.8219 11.8254 23.8352 11.7955 23.8477 11.7652C23.8603 11.735 23.8721 11.7044 23.8831 11.6736C23.8941 11.6428 23.9044 11.6118 23.9139 11.5804C23.9234 11.5491 23.9321 11.5176 23.94 11.4858C23.948 11.4541 23.9552 11.4221 23.9615 11.39C23.968 11.3579 23.9735 11.3257 23.9783 11.2933C23.9831 11.2609 23.9872 11.2285 23.9904 11.1959C23.9936 11.1633 23.996 11.1307 23.9976 11.098C23.9992 11.0653 24 11.0326 24 10.9998C24 10.9671 23.9992 10.9344 23.9976 10.9017C23.996 10.869 23.9936 10.8364 23.9904 10.8038C23.9872 10.7713 23.9831 10.7388 23.9783 10.7064C23.9735 10.674 23.968 10.6418 23.9615 10.6097C23.9552 10.5776 23.948 10.5456 23.94 10.5139C23.9321 10.4822 23.9234 10.4506 23.9139 10.4193C23.9044 10.3879 23.8941 10.3569 23.8831 10.3261C23.8721 10.2953 23.8603 10.2648 23.8477 10.2345C23.8352 10.2042 23.8219 10.1744 23.808 10.1448C23.794 10.1151 23.7793 10.0859 23.7638 10.057C23.7484 10.0282 23.7323 9.99974 23.7154 9.97164C23.6986 9.94361 23.6811 9.91595 23.6629 9.88872C23.6447 9.86149 23.6259 9.83475 23.6064 9.80845C23.5869 9.78214 23.5668 9.7564 23.546 9.73108C23.5252 9.70576 23.5039 9.681 23.4819 9.65674C23.4599 9.63247 23.4373 9.60882 23.4142 9.58567C23.3911 9.56251 23.3673 9.53991 23.3431 9.51793C23.3188 9.49601 23.2941 9.47458 23.2687 9.45384C23.2435 9.43309 23.2177 9.41296 23.1914 9.39345C23.1651 9.37394 23.1383 9.35511 23.1111 9.33695C23.0839 9.31874 23.0563 9.30126 23.0282 9.28441C23.0001 9.26755 22.9716 9.25143 22.9428 9.236C22.9139 9.22062 22.8847 9.20586 22.8551 9.19191C22.8255 9.17789 22.7956 9.16462 22.7653 9.15208C22.7351 9.13955 22.7046 9.12782 22.6737 9.11676C22.6429 9.10577 22.6119 9.09546 22.5806 9.08601C22.5492 9.07651 22.5177 9.06774 22.4859 9.05977C22.4542 9.05187 22.4223 9.04471 22.3901 9.03828C22.358 9.03192 22.3258 9.02631 22.2935 9.02149C22.261 9.01673 22.2286 9.01272 22.196 9.00951C22.1634 9.0063 22.1308 9.00389 22.0981 9.00229C22.0654 9.00068 22.0327 8.99988 22 8.99988Z" fill="#752622"/>
<path id="Vector_13" d="M9.07734 9.29511V10.8232H11.2964C11.0059 11.7497 10.218 12.4123 9.07734 12.4123C7.71868 12.4123 6.61807 11.3322 6.61807 9.99917C6.61807 8.66602 7.71948 7.586 9.07734 7.586C9.68803 7.586 10.2455 7.80565 10.6753 8.16715L11.8227 7.04202C11.0986 6.39478 10.135 5.99988 9.07734 5.99988C6.82559 5.99988 5 7.79111 5 9.99988C5 12.2086 6.82559 13.9999 9.07734 13.9999C12.6424 13.9999 13.2554 10.8602 12.9197 9.30093L9.07734 9.29511Z" fill="white"/>
</g>
</g>
</g>
</svg>
