<svg width="18" height="19" viewBox="0 0 18 19" fill="none" xmlns="http://www.w3.org/2000/svg">
<g id="Icons" clip-path="url(#clip0_187_3091)">
<path id="Vector" d="M13.7726 3.97735C15.0119 5.21645 15.7207 6.88893 15.7491 8.64116C15.7775 10.3934 15.1233 12.088 13.9249 13.3666L13.7726 13.5241L10.5904 16.7056C10.1866 17.1091 9.64455 17.3441 9.07401 17.3629C8.50347 17.3817 7.94711 17.1829 7.51765 16.8068L7.40965 16.7056L4.22664 13.5233C2.96077 12.2575 2.2496 10.5406 2.2496 8.75035C2.2496 6.96012 2.96077 5.24322 4.22664 3.97735C5.49252 2.71147 7.20942 2.00031 8.99965 2.00031C10.7899 2.00031 12.5068 2.71147 13.7726 3.97735ZM8.99965 6.50035C8.70417 6.50035 8.41159 6.55854 8.13861 6.67162C7.86562 6.78469 7.61759 6.95042 7.40865 7.15936C7.19972 7.36829 7.03399 7.61633 6.92092 7.88931C6.80784 8.16229 6.74965 8.45487 6.74965 8.75035C6.74965 9.04582 6.80784 9.3384 6.92092 9.61138C7.03399 9.88437 7.19972 10.1324 7.40865 10.3413C7.61759 10.5503 7.86562 10.716 8.13861 10.8291C8.41159 10.9421 8.70417 11.0003 8.99965 11.0003C9.59638 11.0003 10.1687 10.7633 10.5906 10.3413C11.0126 9.91938 11.2496 9.34708 11.2496 8.75035C11.2496 8.15361 11.0126 7.58131 10.5906 7.15936C10.1687 6.7374 9.59638 6.50035 8.99965 6.50035Z" fill="#DDDDDD"/>
</g>
<defs>
<clipPath id="clip0_187_3091">
<rect width="18" height="18" fill="white" transform="translate(0 0.500122)"/>
</clipPath>
</defs>
</svg>
