<svg width="22" height="22" viewBox="0 0 22 22" fill="none" xmlns="http://www.w3.org/2000/svg">
<g id="Frame" clip-path="url(#clip0_56_3332)">
<path id="Vector" d="M15.5837 3.06167C16.9663 3.85995 18.1164 5.00549 18.9202 6.38486C19.724 7.76424 20.1536 9.32963 20.1665 10.9261C20.1794 12.5225 19.7751 14.0946 18.9937 15.4868C18.2123 16.879 17.0808 18.0429 15.7113 18.8635C14.3418 19.684 12.7818 20.1326 11.1856 20.1649C9.58944 20.1972 8.01252 19.8121 6.61094 19.0476C5.20936 18.2832 4.03173 17.166 3.19462 15.8066C2.35752 14.4471 1.88997 12.8927 1.83826 11.297L1.83368 11L1.83826 10.703C1.8896 9.11991 2.35026 7.57713 3.17535 6.22508C4.00043 4.87303 5.16178 3.75783 6.54616 2.98823C7.93055 2.21862 9.49073 1.82087 11.0746 1.83374C12.6585 1.84661 14.212 2.26967 15.5837 3.06167ZM14.3984 8.51859C14.2406 8.36076 14.0306 8.26595 13.8078 8.25194C13.585 8.23793 13.3648 8.30569 13.1884 8.4425L13.1023 8.51859L10.0837 11.5363L8.89843 10.3519L8.81226 10.2758C8.63588 10.1391 8.41569 10.0714 8.19297 10.0855C7.97025 10.0995 7.7603 10.1944 7.6025 10.3522C7.4447 10.51 7.34989 10.7199 7.33584 10.9426C7.32179 11.1653 7.38946 11.3855 7.52618 11.5619L7.60226 11.6481L9.4356 13.4814L9.52176 13.5575C9.68252 13.6822 9.88021 13.7499 10.0837 13.7499C10.2872 13.7499 10.4848 13.6822 10.6456 13.5575L10.7318 13.4814L14.3984 9.81475L14.4745 9.72859C14.6113 9.55222 14.6791 9.33199 14.6651 9.10921C14.6511 8.88644 14.5563 8.67643 14.3984 8.51859Z" fill="#4A9462"/>
</g>
<defs>
<clipPath id="clip0_56_3332">
<rect width="22" height="22" fill="white" transform="translate(0.000244141)"/>
</clipPath>
</defs>
</svg>
