<svg width="18" height="19" viewBox="0 0 18 19" fill="none" xmlns="http://www.w3.org/2000/svg">
<g id="Icons" clip-path="url(#clip0_36_2706)">
<path id="Vector" d="M12.7499 3.0051C13.8811 3.65824 14.8221 4.5955 15.4797 5.72408C16.1374 6.85266 16.4889 8.13343 16.4994 9.43961C16.51 10.7458 16.1792 12.0321 15.5399 13.1711C14.9006 14.3102 13.9748 15.2625 12.8543 15.9338C11.7338 16.6052 10.4574 16.9722 9.15145 16.9987C7.8455 17.0251 6.55529 16.71 5.40854 16.0845C4.2618 15.4591 3.29828 14.545 2.61338 13.4327C1.92847 12.3205 1.54593 11.0486 1.50363 9.7431L1.49988 9.5001L1.50363 9.2571C1.54563 7.96185 1.92254 6.69957 2.59761 5.59335C3.27268 4.48712 4.22287 3.57469 5.35555 2.94501C6.48823 2.31534 7.76474 1.9899 9.06063 2.00043C10.3565 2.01096 11.6276 2.3571 12.7499 3.0051ZM8.99988 5.0001C8.81618 5.00013 8.63888 5.06757 8.5016 5.18964C8.36432 5.31171 8.27662 5.47991 8.25513 5.66235L8.24988 5.7501V9.5001L8.25663 9.59835C8.27373 9.72848 8.32468 9.85183 8.40438 9.9561L8.46963 10.0311L10.7196 12.2811L10.7901 12.3426C10.9217 12.4447 11.0834 12.5 11.2499 12.5C11.4164 12.5 11.5781 12.4447 11.7096 12.3426L11.7801 12.2804L11.8424 12.2099C11.9444 12.0783 11.9998 11.9166 11.9998 11.7501C11.9998 11.5836 11.9444 11.4219 11.8424 11.2904L11.7801 11.2199L9.74988 9.18885V5.7501L9.74463 5.66235C9.72313 5.47991 9.63543 5.31171 9.49816 5.18964C9.36088 5.06757 9.18358 5.00013 8.99988 5.0001Z" fill="#DDDDDD"/>
</g>
<defs>
<clipPath id="clip0_36_2706">
<rect width="18" height="18" fill="white" transform="translate(0.000244141 0.5)"/>
</clipPath>
</defs>
</svg>
