<svg width="10" height="9" viewBox="0 0 10 9" fill="none" xmlns="http://www.w3.org/2000/svg">
<path id="Vector" d="M0.6465 4.07888L4.1465 0.703875C4.3415 0.515375 4.658 0.515375 4.8535 0.703875C5.0335 0.877375 5.0475 1.15087 4.895 1.33987L4.8535 1.38537L2.207 3.93737H9C9.2565 3.93737 9.4675 4.12338 9.4965 4.36338L9.5 4.41937C9.5 4.66687 9.307 4.87037 9.058 4.89837L9 4.90187H2.207L4.8535 7.45388C5.0335 7.62738 5.0475 7.90088 4.895 8.08988L4.8535 8.13537C4.673 8.30937 4.3895 8.32287 4.1935 8.17537L4.1465 8.13537L0.6465 4.76037L0.598 4.70637L0.562 4.65287L0.5355 4.59838L0.518002 4.54788L0.505501 4.49137L0.501999 4.46237L0.5 4.41037L0.501999 4.37638L0.510002 4.32287L0.525002 4.26887L0.546501 4.21537L0.573002 4.16838L0.606499 4.12237C0.618499 4.10687 0.632 4.09238 0.6465 4.07888Z" fill="#004438"/>
</svg>
