<svg width="10" height="9" viewBox="0 0 10 9" fill="none" xmlns="http://www.w3.org/2000/svg">
<path id="Vector" d="M9.3535 4.07888L5.8535 0.703875C5.6585 0.515375 5.342 0.515375 5.1465 0.703875C4.9665 0.877375 4.9525 1.15087 5.105 1.33987L5.1465 1.38537L7.793 3.93737H1C0.7435 3.93737 0.532502 4.12338 0.503502 4.36338L0.5 4.41937C0.5 4.66687 0.693002 4.87037 0.942001 4.89837L1 4.90187H7.793L5.1465 7.45388C4.9665 7.62738 4.9525 7.90088 5.105 8.08988L5.1465 8.13537C5.327 8.30937 5.6105 8.32287 5.8065 8.17537L5.8535 8.13537L9.3535 4.76037L9.402 4.70637L9.438 4.65287L9.4645 4.59838L9.482 4.54788L9.4945 4.49137L9.498 4.46237L9.5 4.41037L9.498 4.37638L9.49 4.32287L9.475 4.26887L9.4535 4.21537L9.427 4.16838L9.3935 4.12237C9.3815 4.10687 9.368 4.09238 9.3535 4.07888Z" fill="#004438"/>
</svg>
