<svg width="30" height="30" viewBox="0 0 30 30" fill="none" xmlns="http://www.w3.org/2000/svg">
<g id="waze">
<circle id="Ellipse 33" cx="15" cy="15" r="15" fill="#33CCFF"/>
<g id="waze_2">
<path id="Vector" d="M15.1442 6C19.3219 6.00177 22.3704 8.22037 23.4881 11.5628C24.5828 14.8373 23.4448 18.4446 20.6241 20.5758C20.3266 20.8001 20.1994 20.9696 20.271 21.3828C20.4767 22.5737 19.7801 23.6067 18.6606 23.906C17.5332 24.207 16.4297 23.6649 15.9812 22.5517C15.87 22.2753 15.7384 22.1456 15.4435 22.1747C15.2855 22.1897 15.1222 22.1906 14.965 22.1703C14.3726 22.0926 13.9921 22.2135 13.7132 22.8642C13.3282 23.7629 12.2317 24.1558 11.2694 23.9271C10.3106 23.6994 9.58671 22.873 9.57612 21.8639C9.5717 21.4357 9.40043 21.2548 9.07113 21.0623C7.86869 20.3578 6.89755 19.4114 6.25219 18.1648C6.10917 17.8893 5.99528 17.5662 5.99087 17.2634C5.98822 17.1018 6.22482 16.8264 6.39345 16.7902C7.38224 16.5757 7.78305 16.1589 7.7495 15.1463C7.6877 13.2853 7.90753 11.4957 8.93164 9.88542C10.5402 7.35606 12.8559 6.07593 15.1442 6ZM9.87364 20.5096C11.3842 18.9373 12.8647 19.1633 13.94 21.0773C13.9886 21.1638 14.1157 21.2618 14.2067 21.2618C15.0754 21.2618 15.9618 21.3466 16.8111 21.2106C21.0593 20.5335 23.6735 16.7001 22.8153 12.4889C21.8036 7.52556 15.6404 5.19837 11.6084 8.26627C9.50372 9.86776 8.52994 12.0131 8.65442 14.6466C8.71799 15.9886 8.44166 17.1177 6.96642 17.6077C7.65239 18.9099 8.63942 19.8166 9.87364 20.5079V20.5096Z" fill="black"/>
<path id="Vector_2" d="M9.87365 20.5105C8.63943 19.8184 7.6524 18.9117 6.96643 17.6104C8.44167 17.1204 8.718 15.9912 8.65444 14.6493C8.52996 12.0157 9.50462 9.86953 11.6085 8.26893C15.6404 5.20102 21.8036 7.52733 22.8153 12.4916C23.6735 16.7028 21.0594 20.5361 16.8111 21.2133C15.9618 21.3483 15.0754 21.2645 14.2067 21.2645C14.1157 21.2645 13.9886 21.1665 13.9401 21.08C12.8647 19.1659 11.3842 18.9399 9.87365 20.5123V20.5105ZM16.6963 17.666C18.0859 17.621 19.1409 17.0241 19.841 15.8217C20.0079 15.5348 20.0856 15.2293 19.7413 15.0386C19.4022 14.8506 19.2389 15.1322 19.0827 15.3785C17.8767 17.2802 15.5407 17.2713 14.3585 15.36C14.2005 15.1048 14.0381 14.8594 13.6911 15.0536C13.3547 15.2417 13.436 15.5109 13.5887 15.7802C14.2747 16.9888 15.3182 17.6042 16.6963 17.6669V17.666ZM20.2763 12.2621C20.2666 11.7774 19.8693 11.4075 19.3731 11.4216C18.8796 11.4357 18.5212 11.8215 18.5353 12.3239C18.5494 12.8253 18.9326 13.1873 19.4296 13.1705C19.9081 13.1546 20.2851 12.7494 20.2754 12.2621H20.2763ZM14.9183 12.3044C14.9262 11.8312 14.5333 11.4313 14.0495 11.4207C13.5357 11.4092 13.1208 11.8092 13.1314 12.3062C13.1402 12.7617 13.5666 13.1732 14.0275 13.1714C14.4945 13.1705 14.9103 12.7653 14.9183 12.3044Z" fill="white"/>
<path id="Vector_3" d="M16.6962 17.6661C15.3172 17.6034 14.2746 16.988 13.5886 15.7794C13.4359 15.511 13.3546 15.2417 13.691 15.0528C14.038 14.8586 14.2004 15.104 14.3584 15.3592C15.5406 17.2697 17.8766 17.2785 19.0826 15.3777C19.2388 15.1314 19.4022 14.8506 19.7412 15.0378C20.0864 15.2285 20.0087 15.534 19.8409 15.8209C19.1399 17.0233 18.0849 17.6201 16.6962 17.6652V17.6661Z" fill="black"/>
<path id="Vector_4" d="M20.2763 12.262C20.286 12.7493 19.909 13.1546 19.4305 13.1705C18.9335 13.1872 18.5512 12.8253 18.5362 12.3238C18.522 11.8215 18.8805 11.4357 19.374 11.4215C19.8702 11.4074 20.2674 11.7764 20.2771 12.262H20.2763Z" fill="black"/>
<path id="Vector_5" d="M14.9174 12.3043C14.9095 12.7661 14.4937 13.1704 14.0266 13.1713C13.5658 13.1722 13.1394 12.7616 13.1305 12.3061C13.1208 11.809 13.5358 11.4091 14.0487 11.4206C14.5325 11.4312 14.9254 11.8311 14.9174 12.3043Z" fill="black"/>
</g>
</g>
</svg>
