<svg width="198" height="512" viewBox="0 0 198 512" fill="none" xmlns="http://www.w3.org/2000/svg">
<g clip-path="url(#clip0_950_17523)">
<path d="M189.977 37.2942L189.977 511.399" stroke="#4A9462" stroke-opacity="0.3" stroke-width="0.75" stroke-miterlimit="10"/>
<path d="M158.432 37.2942L158.432 511.399" stroke="#4A9462" stroke-opacity="0.3" stroke-width="0.75" stroke-miterlimit="10"/>
<path d="M126.906 37.2942L126.906 511.399" stroke="#4A9462" stroke-opacity="0.3" stroke-width="0.75" stroke-miterlimit="10"/>
<path d="M95.3613 37.2941L95.3614 511.399" stroke="#4A9462" stroke-opacity="0.3" stroke-width="0.75" stroke-miterlimit="10"/>
<path d="M63.832 37.2942L63.8321 511.399" stroke="#4A9462" stroke-opacity="0.3" stroke-width="0.75" stroke-miterlimit="10"/>
<path d="M32.291 37.2941L32.2911 511.399" stroke="#4A9462" stroke-opacity="0.3" stroke-width="0.75" stroke-miterlimit="10"/>
<path d="M0.763672 37.2942L0.763713 511.399" stroke="#4A9462" stroke-opacity="0.3" stroke-width="0.75" stroke-miterlimit="10"/>
<path d="M221.822 258.699L1.0817 258.699" stroke="#4A9462" stroke-opacity="0.3" stroke-width="0.75" stroke-miterlimit="10"/>
<path d="M221.822 227.098L1.0817 227.098" stroke="#4A9462" stroke-opacity="0.3" stroke-width="0.75" stroke-miterlimit="10"/>
<path d="M221.822 195.485L1.0817 195.485" stroke="#4A9462" stroke-opacity="0.3" stroke-width="0.75" stroke-miterlimit="10"/>
<path d="M221.822 163.884L1.0817 163.884" stroke="#4A9462" stroke-opacity="0.3" stroke-width="0.75" stroke-miterlimit="10"/>
<path d="M221.822 132.269L1.0817 132.269" stroke="#4A9462" stroke-opacity="0.3" stroke-width="0.75" stroke-miterlimit="10"/>
<path d="M221.822 100.669L1.0817 100.669" stroke="#4A9462" stroke-opacity="0.3" stroke-width="0.75" stroke-miterlimit="10"/>
<path d="M221.822 69.0549L1.0817 69.055" stroke="#4A9462" stroke-opacity="0.3" stroke-width="0.75" stroke-miterlimit="10"/>
<path d="M221.822 37.4539L1.0817 37.4539" stroke="#4A9462" stroke-opacity="0.3" stroke-width="0.75" stroke-miterlimit="10"/>
<path d="M221.822 511.559L1.0817 511.559" stroke="#4A9462" stroke-opacity="0.3" stroke-width="0.75" stroke-miterlimit="10"/>
<path d="M221.822 479.958L1.0817 479.958" stroke="#4A9462" stroke-opacity="0.3" stroke-width="0.75" stroke-miterlimit="10"/>
<path d="M221.822 448.344L1.0817 448.344" stroke="#4A9462" stroke-opacity="0.3" stroke-width="0.75" stroke-miterlimit="10"/>
<path d="M221.822 416.743L1.0817 416.743" stroke="#4A9462" stroke-opacity="0.3" stroke-width="0.75" stroke-miterlimit="10"/>
<path d="M221.822 385.13L1.0817 385.13" stroke="#4A9462" stroke-opacity="0.3" stroke-width="0.75" stroke-miterlimit="10"/>
<path d="M221.822 353.529L1.0817 353.529" stroke="#4A9462" stroke-opacity="0.3" stroke-width="0.75" stroke-miterlimit="10"/>
<path d="M221.822 321.914L1.0817 321.914" stroke="#4A9462" stroke-opacity="0.3" stroke-width="0.75" stroke-miterlimit="10"/>
<path d="M221.822 290.314L1.0817 290.314" stroke="#4A9462" stroke-opacity="0.3" stroke-width="0.75" stroke-miterlimit="10"/>
<path d="M189.855 0.357178L189.855 11.0374" stroke="#4A9462" stroke-miterlimit="10"/>
<path d="M195.195 5.69727L184.518 5.69727" stroke="#4A9462" stroke-miterlimit="10"/>
<path d="M158.357 0.357178L158.357 11.0374" stroke="#4A9462" stroke-miterlimit="10"/>
<path d="M163.697 5.69727L153.02 5.69727" stroke="#4A9462" stroke-miterlimit="10"/>
<path d="M126.857 0.357178L126.857 11.0374" stroke="#4A9462" stroke-miterlimit="10"/>
<path d="M132.197 5.69727L121.52 5.69727" stroke="#4A9462" stroke-miterlimit="10"/>
<path d="M158.357 31.9839L158.357 42.6641" stroke="#FFB548" stroke-miterlimit="10"/>
<path d="M163.697 37.324L153.02 37.324" stroke="#FFB548" stroke-miterlimit="10"/>
<path d="M126.857 31.9839L126.857 42.6641" stroke="#4A9462" stroke-miterlimit="10"/>
<path d="M132.197 37.3239L121.52 37.3239" stroke="#4A9462" stroke-miterlimit="10"/>
<path d="M95.3594 31.9839L95.3594 42.6641" stroke="#4A9462" stroke-miterlimit="10"/>
<path d="M100.699 37.324L90.0216 37.324" stroke="#4A9462" stroke-miterlimit="10"/>
<path d="M158.357 63.6104L158.357 74.2906" stroke="#4A9462" stroke-miterlimit="10"/>
<path d="M163.697 68.9504L153.02 68.9504" stroke="#4A9462" stroke-miterlimit="10"/>
<path d="M126.857 63.6104L126.857 74.2906" stroke="#4A9462" stroke-miterlimit="10"/>
<path d="M132.197 68.9505L121.52 68.9505" stroke="#4A9462" stroke-miterlimit="10"/>
<path d="M95.3594 63.6104L95.3594 74.2906" stroke="#4A9462" stroke-miterlimit="10"/>
<path d="M100.699 68.9504L90.0216 68.9504" stroke="#4A9462" stroke-miterlimit="10"/>
<path d="M63.8613 63.6104L63.8613 74.2906" stroke="#4A9462" stroke-miterlimit="10"/>
<path d="M69.1992 68.9504L58.5218 68.9504" stroke="#4A9462" stroke-miterlimit="10"/>
<path d="M189.855 95.2507L189.855 105.931" stroke="#4A9462" stroke-miterlimit="10"/>
<path d="M195.195 100.591L184.518 100.591" stroke="#4A9462" stroke-miterlimit="10"/>
<path d="M158.357 95.2507L158.357 105.931" stroke="#4A9462" stroke-miterlimit="10"/>
<path d="M163.697 100.591L153.02 100.591" stroke="#4A9462" stroke-miterlimit="10"/>
<path d="M126.857 95.2507L126.857 105.931" stroke="#4A9462" stroke-miterlimit="10"/>
<path d="M132.197 100.591L121.52 100.591" stroke="#4A9462" stroke-miterlimit="10"/>
<path d="M95.3594 95.2507L95.3594 105.931" stroke="#FFA4B4" stroke-miterlimit="10"/>
<path d="M100.699 100.591L90.0216 100.591" stroke="#FFA4B4" stroke-miterlimit="10"/>
<path d="M63.8613 95.2507L63.8613 105.931" stroke="#4A9462" stroke-miterlimit="10"/>
<path d="M69.1992 100.591L58.5218 100.591" stroke="#4A9462" stroke-miterlimit="10"/>
<path d="M126.857 126.877L126.857 137.558" stroke="#4A9462" stroke-miterlimit="10"/>
<path d="M132.197 132.218L121.52 132.218" stroke="#4A9462" stroke-miterlimit="10"/>
<path d="M95.3594 126.877L95.3594 137.558" stroke="#4A9462" stroke-miterlimit="10"/>
<path d="M100.699 132.218L90.0216 132.218" stroke="#4A9462" stroke-miterlimit="10"/>
<path d="M63.8613 126.877L63.8613 137.558" stroke="#4A9462" stroke-miterlimit="10"/>
<path d="M69.1992 132.218L58.5218 132.218" stroke="#4A9462" stroke-miterlimit="10"/>
<path d="M126.857 158.504L126.857 169.184" stroke="#4A9462" stroke-miterlimit="10"/>
<path d="M132.197 163.845L121.52 163.845" stroke="#4A9462" stroke-miterlimit="10"/>
<path d="M95.3594 158.504L95.3594 169.184" stroke="#4A9462" stroke-miterlimit="10"/>
<path d="M100.699 163.844L90.0216 163.844" stroke="#4A9462" stroke-miterlimit="10"/>
<path d="M63.8613 158.504L63.8613 169.184" stroke="#4A9462" stroke-miterlimit="10"/>
<path d="M69.1992 163.844L58.5218 163.844" stroke="#4A9462" stroke-miterlimit="10"/>
<path d="M32.3613 158.504L32.3613 169.184" stroke="#4A9462" stroke-miterlimit="10"/>
<path d="M37.7012 163.845L27.0238 163.845" stroke="#4A9462" stroke-miterlimit="10"/>
<path d="M189.855 190.131L189.855 200.811" stroke="#4A9462" stroke-miterlimit="10"/>
<path d="M195.195 195.47L184.518 195.47" stroke="#4A9462" stroke-miterlimit="10"/>
<path d="M158.357 190.131L158.357 200.811" stroke="#4A9462" stroke-miterlimit="10"/>
<path d="M163.697 195.47L153.02 195.47" stroke="#4A9462" stroke-miterlimit="10"/>
<path d="M126.857 190.131L126.857 200.811" stroke="#8AB7E9" stroke-miterlimit="10"/>
<path d="M132.197 195.47L121.52 195.47" stroke="#8AB7E9" stroke-miterlimit="10"/>
<path d="M95.3594 190.131L95.3594 200.811" stroke="#4A9462" stroke-miterlimit="10"/>
<path d="M100.699 195.47L90.0216 195.47" stroke="#4A9462" stroke-miterlimit="10"/>
<path d="M63.8613 190.131L63.8613 200.811" stroke="#4A9462" stroke-miterlimit="10"/>
<path d="M69.1992 195.47L58.5218 195.47" stroke="#4A9462" stroke-miterlimit="10"/>
<path d="M32.3613 190.131L32.3613 200.811" stroke="#4A9462" stroke-miterlimit="10"/>
<path d="M37.7012 195.47L27.0238 195.47" stroke="#4A9462" stroke-miterlimit="10"/>
<path d="M189.855 221.771L189.855 232.451" stroke="#4A9462" stroke-miterlimit="10"/>
<path d="M195.195 227.111L184.518 227.111" stroke="#4A9462" stroke-miterlimit="10"/>
<path d="M158.357 221.771L158.357 232.451" stroke="#4A9462" stroke-miterlimit="10"/>
<path d="M163.697 227.111L153.02 227.111" stroke="#4A9462" stroke-miterlimit="10"/>
<path d="M126.857 221.771L126.857 232.451" stroke="#4A9462" stroke-miterlimit="10"/>
<path d="M132.197 227.111L121.52 227.111" stroke="#4A9462" stroke-miterlimit="10"/>
<path d="M95.3594 221.771L95.3594 232.451" stroke="#4A9462" stroke-miterlimit="10"/>
<path d="M100.699 227.111L90.0216 227.111" stroke="#4A9462" stroke-miterlimit="10"/>
<path d="M189.855 253.397L189.855 264.078" stroke="#4A9462" stroke-miterlimit="10"/>
<path d="M195.195 258.738L184.518 258.738" stroke="#4A9462" stroke-miterlimit="10"/>
<path d="M158.357 253.397L158.357 264.078" stroke="#4A9462" stroke-miterlimit="10"/>
<path d="M163.697 258.738L153.02 258.738" stroke="#4A9462" stroke-miterlimit="10"/>
<path d="M126.857 253.397L126.857 264.078" stroke="#4A9462" stroke-miterlimit="10"/>
<path d="M132.197 258.738L121.52 258.738" stroke="#4A9462" stroke-miterlimit="10"/>
<path d="M95.3594 253.397L95.3594 264.078" stroke="#4A9462" stroke-miterlimit="10"/>
<path d="M100.699 258.738L90.0216 258.738" stroke="#4A9462" stroke-miterlimit="10"/>
<path d="M63.8613 253.397L63.8613 264.078" stroke="#4A9462" stroke-miterlimit="10"/>
<path d="M69.1992 258.738L58.5218 258.738" stroke="#4A9462" stroke-miterlimit="10"/>
<path d="M126.857 285.024L126.857 295.704" stroke="#4A9462" stroke-miterlimit="10"/>
<path d="M132.197 290.365L121.52 290.365" stroke="#4A9462" stroke-miterlimit="10"/>
<path d="M95.3594 285.024L95.3594 295.704" stroke="#4A9462" stroke-miterlimit="10"/>
<path d="M100.699 290.365L90.0216 290.365" stroke="#4A9462" stroke-miterlimit="10"/>
<path d="M63.8613 285.024L63.8613 295.704" stroke="#4A9462" stroke-miterlimit="10"/>
<path d="M69.1992 290.365L58.5218 290.365" stroke="#4A9462" stroke-miterlimit="10"/>
<path d="M32.3613 285.024L32.3613 295.704" stroke="#4A9462" stroke-miterlimit="10"/>
<path d="M37.7012 290.365L27.0238 290.365" stroke="#4A9462" stroke-miterlimit="10"/>
<path d="M126.857 316.651L126.857 327.331" stroke="#4A9462" stroke-miterlimit="10"/>
<path d="M132.197 321.991L121.52 321.991" stroke="#4A9462" stroke-miterlimit="10"/>
<path d="M95.3594 316.651L95.3594 327.331" stroke="#4A9462" stroke-miterlimit="10"/>
<path d="M100.699 321.991L90.0216 321.991" stroke="#4A9462" stroke-miterlimit="10"/>
<path d="M63.8613 316.651L63.8613 327.331" stroke="#4A9462" stroke-miterlimit="10"/>
<path d="M69.1992 321.991L58.5218 321.991" stroke="#4A9462" stroke-miterlimit="10"/>
<path d="M32.3613 316.651L32.3613 327.331" stroke="#4A9462" stroke-miterlimit="10"/>
<path d="M37.7012 321.991L27.0238 321.991" stroke="#4A9462" stroke-miterlimit="10"/>
<path d="M126.857 348.292L126.857 358.972" stroke="#4A9462" stroke-miterlimit="10"/>
<path d="M132.197 353.631L121.52 353.631" stroke="#4A9462" stroke-miterlimit="10"/>
<path d="M95.3594 348.292L95.3594 358.972" stroke="#4A9462" stroke-miterlimit="10"/>
<path d="M100.699 353.631L90.0216 353.631" stroke="#4A9462" stroke-miterlimit="10"/>
<path d="M63.8613 348.292L63.8613 358.972" stroke="#4A9462" stroke-miterlimit="10"/>
<path d="M69.1992 353.631L58.5218 353.631" stroke="#4A9462" stroke-miterlimit="10"/>
<path d="M32.3613 348.292L32.3613 358.972" stroke="#4A9462" stroke-miterlimit="10"/>
<path d="M37.7012 353.631L27.0238 353.631" stroke="#4A9462" stroke-miterlimit="10"/>
<path d="M63.8613 379.917L63.8613 390.599" stroke="#4A9462" stroke-miterlimit="10"/>
<path d="M69.1992 385.258L58.5218 385.258" stroke="#4A9462" stroke-miterlimit="10"/>
<path d="M32.3613 379.917L32.3613 390.599" stroke="#4A9462" stroke-miterlimit="10"/>
<path d="M37.7012 385.258L27.0238 385.258" stroke="#4A9462" stroke-miterlimit="10"/>
<path d="M189.855 411.544L189.855 422.224" stroke="#4A9462" stroke-miterlimit="10"/>
<path d="M195.195 416.885L184.518 416.885" stroke="#4A9462" stroke-miterlimit="10"/>
<path d="M63.8613 411.544L63.8613 422.224" stroke="#4A9462" stroke-miterlimit="10"/>
<path d="M69.1992 416.885L58.5218 416.885" stroke="#4A9462" stroke-miterlimit="10"/>
<path d="M32.3613 411.544L32.3613 422.224" stroke="#4A9462" stroke-miterlimit="10"/>
<path d="M37.7012 416.885L27.0238 416.885" stroke="#4A9462" stroke-miterlimit="10"/>
</g>
<defs>
<clipPath id="clip0_950_17523">
<rect width="198" height="512" fill="white" transform="matrix(-1 8.74228e-08 8.74228e-08 1 198 0)"/>
</clipPath>
</defs>
</svg>
