<svg width="235" height="163" viewBox="0 0 235 163" fill="none" xmlns="http://www.w3.org/2000/svg">
<g clip-path="url(#clip0_1031_22825)">
<path d="M204.407 7.51685L-184.507 7.51684" stroke="#4A9462" stroke-opacity="0.3" stroke-width="0.75" stroke-miterlimit="10"/>
<path d="M204.407 33.3252L-184.507 33.3252" stroke="#4A9462" stroke-opacity="0.3" stroke-width="0.75" stroke-miterlimit="10"/>
<path d="M204.407 59.1196L-184.507 59.1196" stroke="#4A9462" stroke-opacity="0.3" stroke-width="0.75" stroke-miterlimit="10"/>
<path d="M204.407 84.9285L-184.507 84.9285" stroke="#4A9462" stroke-opacity="0.3" stroke-width="0.75" stroke-miterlimit="10"/>
<path d="M204.407 110.725L-184.507 110.725" stroke="#4A9462" stroke-opacity="0.3" stroke-width="0.75" stroke-miterlimit="10"/>
<path d="M204.407 136.531L-184.507 136.531" stroke="#4A9462" stroke-opacity="0.3" stroke-width="0.75" stroke-miterlimit="10"/>
<path d="M204.407 162.327L-184.507 162.327" stroke="#4A9462" stroke-opacity="0.3" stroke-width="0.75" stroke-miterlimit="10"/>
<path d="M22.7852 -18.54L22.7852 162.066" stroke="#4A9462" stroke-opacity="0.3" stroke-width="0.75" stroke-miterlimit="10"/>
<path d="M48.708 -18.54L48.708 162.066" stroke="#4A9462" stroke-opacity="0.3" stroke-width="0.75" stroke-miterlimit="10"/>
<path d="M74.6416 -18.54L74.6416 162.066" stroke="#4A9462" stroke-opacity="0.3" stroke-width="0.75" stroke-miterlimit="10"/>
<path d="M100.564 -18.54L100.564 162.066" stroke="#4A9462" stroke-opacity="0.3" stroke-width="0.75" stroke-miterlimit="10"/>
<path d="M126.498 -18.54L126.498 162.066" stroke="#4A9462" stroke-opacity="0.3" stroke-width="0.75" stroke-miterlimit="10"/>
<path d="M152.42 -18.54L152.42 162.066" stroke="#4A9462" stroke-opacity="0.3" stroke-width="0.75" stroke-miterlimit="10"/>
<path d="M178.354 -18.54L178.354 162.066" stroke="#4A9462" stroke-opacity="0.3" stroke-width="0.75" stroke-miterlimit="10"/>
<path d="M204.276 -18.54L204.276 162.066" stroke="#4A9462" stroke-opacity="0.3" stroke-width="0.75" stroke-miterlimit="10"/>
<path d="M234.707 7.61426L225.946 7.61426" stroke="#4A9462" stroke-miterlimit="10"/>
<path d="M230.326 3.24634L230.326 11.9826" stroke="#4A9462" stroke-miterlimit="10"/>
<path d="M234.707 33.3857L225.946 33.3857" stroke="#4A9462" stroke-miterlimit="10"/>
<path d="M230.326 29.0176L230.326 37.7538" stroke="#4A9462" stroke-miterlimit="10"/>
<path d="M234.707 59.1582L225.946 59.1582" stroke="#4A9462" stroke-miterlimit="10"/>
<path d="M230.326 54.79L230.326 63.5263" stroke="#4A9462" stroke-miterlimit="10"/>
<path d="M208.764 33.3857L200.003 33.3857" stroke="#FFB548" stroke-miterlimit="10"/>
<path d="M204.383 29.0176L204.383 37.7538" stroke="#FFB548" stroke-miterlimit="10"/>
<path d="M208.764 59.1582L200.003 59.1582" stroke="#4A9462" stroke-miterlimit="10"/>
<path d="M204.383 54.79L204.383 63.5263" stroke="#4A9462" stroke-miterlimit="10"/>
<path d="M208.764 84.9294L200.003 84.9294" stroke="#4A9462" stroke-miterlimit="10"/>
<path d="M204.383 80.5615L204.383 89.2977" stroke="#4A9462" stroke-miterlimit="10"/>
<path d="M182.819 33.3857L174.058 33.3857" stroke="#4A9462" stroke-miterlimit="10"/>
<path d="M178.439 29.0176L178.439 37.7538" stroke="#4A9462" stroke-miterlimit="10"/>
<path d="M182.819 59.1582L174.058 59.1582" stroke="#4A9462" stroke-miterlimit="10"/>
<path d="M178.439 54.79L178.439 63.5263" stroke="#4A9462" stroke-miterlimit="10"/>
<path d="M182.819 84.9294L174.058 84.9294" stroke="#4A9462" stroke-miterlimit="10"/>
<path d="M178.439 80.5615L178.439 89.2977" stroke="#4A9462" stroke-miterlimit="10"/>
<path d="M182.819 110.702L174.058 110.702" stroke="#4A9462" stroke-miterlimit="10"/>
<path d="M178.439 106.334L178.439 115.07" stroke="#4A9462" stroke-miterlimit="10"/>
<path d="M156.864 7.6145L148.103 7.6145" stroke="#4A9462" stroke-miterlimit="10"/>
<path d="M152.484 3.24634L152.484 11.9826" stroke="#4A9462" stroke-miterlimit="10"/>
<path d="M156.864 33.3857L148.103 33.3857" stroke="#4A9462" stroke-miterlimit="10"/>
<path d="M152.484 29.0176L152.484 37.7538" stroke="#4A9462" stroke-miterlimit="10"/>
<path d="M156.864 59.1582L148.103 59.1582" stroke="#4A9462" stroke-miterlimit="10"/>
<path d="M152.484 54.79L152.484 63.5263" stroke="#4A9462" stroke-miterlimit="10"/>
<path d="M156.864 84.9294L148.103 84.9294" stroke="#FFA4B4" stroke-miterlimit="10"/>
<path d="M152.484 80.5615L152.484 89.2977" stroke="#FFA4B4" stroke-miterlimit="10"/>
<path d="M156.864 110.702L148.103 110.702" stroke="#4A9462" stroke-miterlimit="10"/>
<path d="M152.484 106.334L152.484 115.07" stroke="#4A9462" stroke-miterlimit="10"/>
<path d="M130.921 59.1582L122.159 59.1582" stroke="#4A9462" stroke-miterlimit="10"/>
<path d="M126.54 54.79L126.54 63.5263" stroke="#4A9462" stroke-miterlimit="10"/>
<path d="M130.921 84.9294L122.159 84.9294" stroke="#4A9462" stroke-miterlimit="10"/>
<path d="M126.54 80.5615L126.54 89.2977" stroke="#4A9462" stroke-miterlimit="10"/>
<path d="M130.921 110.702L122.159 110.702" stroke="#4A9462" stroke-miterlimit="10"/>
<path d="M126.54 106.334L126.54 115.07" stroke="#4A9462" stroke-miterlimit="10"/>
<path d="M104.978 59.1582L96.2166 59.1582" stroke="#4A9462" stroke-miterlimit="10"/>
<path d="M100.597 54.79L100.597 63.5263" stroke="#4A9462" stroke-miterlimit="10"/>
<path d="M104.978 84.9294L96.2166 84.9294" stroke="#4A9462" stroke-miterlimit="10"/>
<path d="M100.597 80.5615L100.597 89.2977" stroke="#4A9462" stroke-miterlimit="10"/>
<path d="M104.978 110.702L96.2166 110.702" stroke="#4A9462" stroke-miterlimit="10"/>
<path d="M100.597 106.334L100.597 115.07" stroke="#4A9462" stroke-miterlimit="10"/>
<path d="M104.978 136.474L96.2166 136.474" stroke="#4A9462" stroke-miterlimit="10"/>
<path d="M100.597 132.105L100.597 140.841" stroke="#4A9462" stroke-miterlimit="10"/>
<path d="M79.0332 7.61426L70.2723 7.61426" stroke="#4A9462" stroke-miterlimit="10"/>
<path d="M74.6533 3.24634L74.6533 11.9826" stroke="#4A9462" stroke-miterlimit="10"/>
<path d="M79.0332 33.3857L70.2723 33.3857" stroke="#4A9462" stroke-miterlimit="10"/>
<path d="M74.6533 29.0176L74.6533 37.7538" stroke="#4A9462" stroke-miterlimit="10"/>
<path d="M79.0332 59.1582L70.2723 59.1582" stroke="#8AB7E9" stroke-miterlimit="10"/>
<path d="M74.6533 54.79L74.6533 63.5263" stroke="#8AB7E9" stroke-miterlimit="10"/>
<path d="M79.0332 84.9294L70.2723 84.9294" stroke="#4A9462" stroke-miterlimit="10"/>
<path d="M74.6533 80.5615L74.6533 89.2977" stroke="#4A9462" stroke-miterlimit="10"/>
<path d="M79.0332 110.702L70.2723 110.702" stroke="#4A9462" stroke-miterlimit="10"/>
<path d="M74.6533 106.334L74.6533 115.07" stroke="#4A9462" stroke-miterlimit="10"/>
<path d="M79.0332 136.474L70.2723 136.474" stroke="#4A9462" stroke-miterlimit="10"/>
<path d="M74.6533 132.105L74.6533 140.841" stroke="#4A9462" stroke-miterlimit="10"/>
<path d="M53.0781 7.61426L44.3172 7.61426" stroke="#4A9462" stroke-miterlimit="10"/>
<path d="M48.6982 3.24634L48.6982 11.9826" stroke="#4A9462" stroke-miterlimit="10"/>
<path d="M53.0781 33.3857L44.3172 33.3857" stroke="#4A9462" stroke-miterlimit="10"/>
<path d="M48.6982 29.0176L48.6982 37.7538" stroke="#4A9462" stroke-miterlimit="10"/>
<path d="M53.0781 59.1582L44.3172 59.1582" stroke="#4A9462" stroke-miterlimit="10"/>
<path d="M48.6982 54.79L48.6982 63.5263" stroke="#4A9462" stroke-miterlimit="10"/>
<path d="M53.0781 84.9294L44.3172 84.9294" stroke="#4A9462" stroke-miterlimit="10"/>
<path d="M48.6982 80.5615L48.6982 89.2977" stroke="#4A9462" stroke-miterlimit="10"/>
<path d="M27.1348 7.61426L18.3729 7.61426" stroke="#4A9462" stroke-miterlimit="10"/>
<path d="M22.7539 3.24634L22.7539 11.9826" stroke="#4A9462" stroke-miterlimit="10"/>
<path d="M27.1348 33.3857L18.3729 33.3857" stroke="#4A9462" stroke-miterlimit="10"/>
<path d="M22.7539 29.0176L22.7539 37.7538" stroke="#4A9462" stroke-miterlimit="10"/>
<path d="M27.1348 59.1582L18.3729 59.1582" stroke="#4A9462" stroke-miterlimit="10"/>
<path d="M22.7539 54.79L22.7539 63.5263" stroke="#4A9462" stroke-miterlimit="10"/>
<path d="M27.1348 84.9294L18.3729 84.9294" stroke="#4A9462" stroke-miterlimit="10"/>
<path d="M22.7539 80.5615L22.7539 89.2977" stroke="#4A9462" stroke-miterlimit="10"/>
<path d="M27.1348 110.702L18.3729 110.702" stroke="#4A9462" stroke-miterlimit="10"/>
<path d="M22.7539 106.334L22.7539 115.07" stroke="#4A9462" stroke-miterlimit="10"/>
<path d="M1.19141 59.1582L-7.56951 59.1582" stroke="#4A9462" stroke-miterlimit="10"/>
<path d="M1.19141 84.9294L-7.56951 84.9294" stroke="#4A9462" stroke-miterlimit="10"/>
<path d="M1.19141 110.702L-7.56951 110.702" stroke="#4A9462" stroke-miterlimit="10"/>
<path d="M1.19141 136.474L-7.56951 136.474" stroke="#4A9462" stroke-miterlimit="10"/>
</g>
<defs>
<clipPath id="clip0_1031_22825">
<rect width="162" height="420" fill="white" transform="translate(235 0.951416) rotate(90)"/>
</clipPath>
</defs>
</svg>
