<svg width="175" height="113" viewBox="0 0 175 113" fill="none" xmlns="http://www.w3.org/2000/svg">
<g clip-path="url(#clip0_1053_23152)">
<path d="M33.8823 69.7054L3.08887 55.8576V33.3003L33.8823 47.1431V69.7054Z" stroke="#004438" stroke-miterlimit="10"/>
<path d="M142.879 74.5231L112.086 60.6802V60.6994L82.0321 47.1842V47.2035L51.9785 33.6885V56.2458L82.7719 70.0936V70.0743L112.825 83.5895V83.5702L142.879 97.0854V74.5231Z" stroke="#004438" stroke-miterlimit="10"/>
<path d="M52.1865 -4.37305L82.9799 9.47474V9.45546L113.033 22.9707" stroke="#004438" stroke-miterlimit="10"/>
<path d="M24.6992 -1.97998V20.5775" stroke="#004438" stroke-miterlimit="10"/>
<path d="M144.313 113.083L113.519 99.2399V99.2592L83.4657 85.744V85.7633L53.4121 72.248" stroke="#004438" stroke-miterlimit="10"/>
<path d="M29.1709 106.726L47.3556 92.8778V70.3203L29.1709 84.1633V106.726Z" stroke="#004438" stroke-miterlimit="10"/>
<path d="M52.1865 33.3097L70.3713 19.4619L122.377 42.8493L104.192 56.6921L52.1865 33.3097Z" fill="#8AB7E9" stroke="#4A9462" stroke-miterlimit="10"/>
</g>
<defs>
<clipPath id="clip0_1053_23152">
<rect width="201" height="131" fill="white" transform="translate(-26 -18)"/>
</clipPath>
</defs>
</svg>
