<svg width="317" height="400" viewBox="0 0 317 400" fill="none" xmlns="http://www.w3.org/2000/svg">
<g clip-path="url(#clip0_711_12831)">
<path d="M31.5352 88.2802L87.391 47.4998L247.13 116.373L191.275 157.139L31.5352 88.2802Z" fill="#8AB7E9"/>
<path d="M311.11 209.172L216.526 168.405V168.462L124.214 128.661V128.718L31.9023 88.9175V155.347L126.487 196.127V196.07L218.799 235.871V235.814L311.11 275.615V209.172Z" stroke="#004438" stroke-width="0.909326" stroke-miterlimit="10"/>
<path d="M32.543 -23.1682L127.127 17.6122V17.5554L219.439 57.3564" stroke="#004438" stroke-width="0.909326" stroke-miterlimit="10"/>
<path d="M315.513 322.726L220.929 281.96V282.017L128.617 242.216V242.273L36.3047 202.472" stroke="#004438" stroke-width="0.909326" stroke-miterlimit="10"/>
<path d="M-38.1543 304.004L17.7015 263.224V196.794L-38.1543 237.56V304.004Z" stroke="#004438" stroke-width="0.909326" stroke-miterlimit="10"/>
</g>
<defs>
<clipPath id="clip0_711_12831">
<rect width="401" height="400" fill="white" transform="translate(-84)"/>
</clipPath>
</defs>
</svg>
