<svg width="24" height="24" viewBox="0 0 24 24" fill="none" xmlns="http://www.w3.org/2000/svg">
<path d="M5.85389 11.519L10.7951 6.75428C11.0704 6.48816 11.5172 6.48816 11.7932 6.75428C12.0473 6.99922 12.0671 7.38533 11.8518 7.65215L11.7932 7.71639L8.05695 11.3192H17.6471C18.0092 11.3192 18.3071 11.5818 18.348 11.9206L18.3529 11.9997C18.3529 12.3491 18.0805 12.6364 17.7289 12.6759L17.6471 12.6809H8.05695L11.7932 16.2837C12.0473 16.5286 12.0671 16.9147 11.8518 17.1816L11.7932 17.2458C11.5384 17.4914 11.1381 17.5105 10.8614 17.3023L10.7951 17.2458L5.85389 12.4811L5.78542 12.4049L5.73459 12.3293L5.69718 12.2524L5.67248 12.1811L5.65483 12.1013L5.64989 12.0604L5.64706 11.987L5.64989 11.939L5.66118 11.8634L5.68236 11.7872L5.71271 11.7117L5.75013 11.6453L5.79742 11.5804C5.81436 11.5585 5.83342 11.538 5.85389 11.519Z" fill="#004438"/>
</svg>
