<svg width="18" height="16" viewBox="0 0 18 16" fill="none" xmlns="http://www.w3.org/2000/svg">
<path id="Vector" d="M17.707 7.31848L10.707 0.568482C10.317 0.191482 9.684 0.191482 9.293 0.568482C8.933 0.915482 8.90499 1.46248 9.20999 1.84048L9.293 1.93148L14.586 7.03548H1C0.487 7.03548 0.0650043 7.40748 0.00700378 7.88748L0 7.99948C0 8.49448 0.386003 8.90147 0.884003 8.95747L1 8.96448H14.586L9.293 14.0685C8.933 14.4155 8.90499 14.9625 9.20999 15.3405L9.293 15.4315C9.654 15.7795 10.221 15.8065 10.613 15.5115L10.707 15.4315L17.707 8.68147L17.804 8.57347L17.876 8.46648L17.929 8.35748L17.964 8.25649L17.989 8.14348L17.996 8.08548L18 7.98148L17.996 7.91348L17.98 7.80647L17.95 7.69847L17.907 7.59148L17.854 7.49748L17.787 7.40547C17.763 7.37447 17.736 7.34548 17.707 7.31848Z" fill="#004438"/>
</svg>
