<svg width="18" height="16" viewBox="0 0 18 16" fill="none" xmlns="http://www.w3.org/2000/svg">
<g clip-path="url(#clip0_108_4)">
<path d="M0.292999 7.31848L7.293 0.568486C7.683 0.191486 8.316 0.191486 8.707 0.568486C9.067 0.915486 9.09501 1.46248 8.79001 1.84048L8.707 1.93148L3.414 7.03548H17C17.513 7.03548 17.935 7.40748 17.993 7.88748L18 7.99948C18 8.49448 17.614 8.90147 17.116 8.95747L17 8.96448H3.414L8.707 14.0685C9.067 14.4155 9.09501 14.9625 8.79001 15.3405L8.707 15.4315C8.346 15.7795 7.779 15.8065 7.387 15.5115L7.293 15.4315L0.292999 8.68147L0.195999 8.57347L0.124001 8.46648L0.0709991 8.35748L0.0359993 8.25649L0.0109997 8.14348L0.00399971 8.08548L0 7.98148L0.00399971 7.91348L0.0200005 7.80647L0.0499992 7.69847L0.0930004 7.59148L0.146 7.49748L0.212999 7.40547C0.236999 7.37447 0.263999 7.34548 0.292999 7.31848Z" fill="#004438"/>
</g>
<defs>
<clipPath id="clip0_108_4">
<rect width="18" height="16" fill="white" transform="matrix(-1 0 0 1 18 0)"/>
</clipPath>
</defs>
</svg>
