<svg width="211" height="546" viewBox="0 0 211 546" fill="none" xmlns="http://www.w3.org/2000/svg">
<g clip-path="url(#clip0_263_2579)">
<path d="M202.449 39.7706L202.449 545.359" stroke="#4A9462" stroke-opacity="0.3" stroke-width="0.75" stroke-miterlimit="10"/>
<path d="M168.834 39.7706L168.834 545.359" stroke="#4A9462" stroke-opacity="0.3" stroke-width="0.75" stroke-miterlimit="10"/>
<path d="M135.238 39.7706L135.238 545.359" stroke="#4A9462" stroke-opacity="0.3" stroke-width="0.75" stroke-miterlimit="10"/>
<path d="M101.622 39.7706L101.623 545.359" stroke="#4A9462" stroke-opacity="0.3" stroke-width="0.75" stroke-miterlimit="10"/>
<path d="M68.0235 39.7706L68.0235 545.359" stroke="#4A9462" stroke-opacity="0.3" stroke-width="0.75" stroke-miterlimit="10"/>
<path d="M34.4109 39.7706L34.411 545.359" stroke="#4A9462" stroke-opacity="0.3" stroke-width="0.75" stroke-miterlimit="10"/>
<path d="M0.812805 39.7706L0.812849 545.359" stroke="#4A9462" stroke-opacity="0.3" stroke-width="0.75" stroke-miterlimit="10"/>
<path d="M236.387 275.879L1.15331 275.879" stroke="#4A9462" stroke-opacity="0.3" stroke-width="0.75" stroke-miterlimit="10"/>
<path d="M236.387 242.179L1.15331 242.179" stroke="#4A9462" stroke-opacity="0.3" stroke-width="0.75" stroke-miterlimit="10"/>
<path d="M236.387 208.466L1.15331 208.466" stroke="#4A9462" stroke-opacity="0.3" stroke-width="0.75" stroke-miterlimit="10"/>
<path d="M236.387 174.767L1.15331 174.767" stroke="#4A9462" stroke-opacity="0.3" stroke-width="0.75" stroke-miterlimit="10"/>
<path d="M236.387 141.053L1.15331 141.053" stroke="#4A9462" stroke-opacity="0.3" stroke-width="0.75" stroke-miterlimit="10"/>
<path d="M236.387 107.354L1.15331 107.354" stroke="#4A9462" stroke-opacity="0.3" stroke-width="0.75" stroke-miterlimit="10"/>
<path d="M236.387 73.6406L1.15331 73.6406" stroke="#4A9462" stroke-opacity="0.3" stroke-width="0.75" stroke-miterlimit="10"/>
<path d="M236.387 39.941L1.15331 39.9411" stroke="#4A9462" stroke-opacity="0.3" stroke-width="0.75" stroke-miterlimit="10"/>
<path d="M236.387 545.53L1.15337 545.53" stroke="#4A9462" stroke-opacity="0.3" stroke-width="0.75" stroke-miterlimit="10"/>
<path d="M236.387 511.83L1.15337 511.83" stroke="#4A9462" stroke-opacity="0.3" stroke-width="0.75" stroke-miterlimit="10"/>
<path d="M236.387 478.117L1.15337 478.117" stroke="#4A9462" stroke-opacity="0.3" stroke-width="0.75" stroke-miterlimit="10"/>
<path d="M236.387 444.418L1.15337 444.418" stroke="#4A9462" stroke-opacity="0.3" stroke-width="0.75" stroke-miterlimit="10"/>
<path d="M236.387 410.705L1.15331 410.705" stroke="#4A9462" stroke-opacity="0.3" stroke-width="0.75" stroke-miterlimit="10"/>
<path d="M236.387 377.005L1.15331 377.005" stroke="#4A9462" stroke-opacity="0.3" stroke-width="0.75" stroke-miterlimit="10"/>
<path d="M236.387 343.291L1.15331 343.291" stroke="#4A9462" stroke-opacity="0.3" stroke-width="0.75" stroke-miterlimit="10"/>
<path d="M236.387 309.593L1.15331 309.593" stroke="#4A9462" stroke-opacity="0.3" stroke-width="0.75" stroke-miterlimit="10"/>
<path d="M202.322 0.380859L202.322 11.7703" stroke="#4A9462" stroke-miterlimit="10"/>
<path d="M208.011 6.07556L196.632 6.07556" stroke="#4A9462" stroke-miterlimit="10"/>
<path d="M168.755 0.380859L168.755 11.7703" stroke="#4A9462" stroke-miterlimit="10"/>
<path d="M174.445 6.07556L163.066 6.07556" stroke="#4A9462" stroke-miterlimit="10"/>
<path d="M135.187 0.380859L135.187 11.7703" stroke="#4A9462" stroke-miterlimit="10"/>
<path d="M140.877 6.07556L129.498 6.07556" stroke="#4A9462" stroke-miterlimit="10"/>
<path d="M168.755 34.1077L168.755 45.4971" stroke="#FFB548" stroke-miterlimit="10"/>
<path d="M174.445 39.8025L163.066 39.8025" stroke="#FFB548" stroke-miterlimit="10"/>
<path d="M135.187 34.1077L135.187 45.4971" stroke="#4A9462" stroke-miterlimit="10"/>
<path d="M140.877 39.8025L129.498 39.8025" stroke="#4A9462" stroke-miterlimit="10"/>
<path d="M101.621 34.1078L101.621 45.4972" stroke="#4A9462" stroke-miterlimit="10"/>
<path d="M107.31 39.8025L95.9317 39.8025" stroke="#4A9462" stroke-miterlimit="10"/>
<path d="M168.755 67.8346L168.755 79.224" stroke="#4A9462" stroke-miterlimit="10"/>
<path d="M174.445 73.5293L163.066 73.5293" stroke="#4A9462" stroke-miterlimit="10"/>
<path d="M135.187 67.8346L135.187 79.224" stroke="#4A9462" stroke-miterlimit="10"/>
<path d="M140.877 73.5293L129.498 73.5293" stroke="#4A9462" stroke-miterlimit="10"/>
<path d="M101.621 67.8346L101.621 79.224" stroke="#4A9462" stroke-miterlimit="10"/>
<path d="M107.31 73.5293L95.9317 73.5293" stroke="#4A9462" stroke-miterlimit="10"/>
<path d="M68.0535 67.8346L68.0535 79.224" stroke="#4A9462" stroke-miterlimit="10"/>
<path d="M73.7421 73.5293L62.3636 73.5293" stroke="#4A9462" stroke-miterlimit="10"/>
<path d="M202.322 101.576L202.322 112.965" stroke="#4A9462" stroke-miterlimit="10"/>
<path d="M208.011 107.271L196.632 107.271" stroke="#4A9462" stroke-miterlimit="10"/>
<path d="M168.755 101.576L168.755 112.965" stroke="#4A9462" stroke-miterlimit="10"/>
<path d="M174.445 107.271L163.066 107.271" stroke="#4A9462" stroke-miterlimit="10"/>
<path d="M135.187 101.576L135.187 112.965" stroke="#4A9462" stroke-miterlimit="10"/>
<path d="M140.877 107.271L129.498 107.271" stroke="#4A9462" stroke-miterlimit="10"/>
<path d="M101.621 101.576L101.621 112.965" stroke="#FFA4B4" stroke-miterlimit="10"/>
<path d="M107.31 107.271L95.9317 107.271" stroke="#FFA4B4" stroke-miterlimit="10"/>
<path d="M68.0535 101.576L68.0535 112.965" stroke="#4A9462" stroke-miterlimit="10"/>
<path d="M73.7421 107.271L62.3636 107.271" stroke="#4A9462" stroke-miterlimit="10"/>
<path d="M135.187 135.302L135.187 146.693" stroke="#4A9462" stroke-miterlimit="10"/>
<path d="M140.877 140.998L129.498 140.998" stroke="#4A9462" stroke-miterlimit="10"/>
<path d="M101.621 135.302L101.621 146.693" stroke="#4A9462" stroke-miterlimit="10"/>
<path d="M107.31 140.998L95.9317 140.998" stroke="#4A9462" stroke-miterlimit="10"/>
<path d="M68.0535 135.302L68.0535 146.693" stroke="#4A9462" stroke-miterlimit="10"/>
<path d="M73.7421 140.998L62.3636 140.998" stroke="#4A9462" stroke-miterlimit="10"/>
<path d="M135.187 169.03L135.187 180.419" stroke="#4A9462" stroke-miterlimit="10"/>
<path d="M140.877 174.725L129.498 174.725" stroke="#4A9462" stroke-miterlimit="10"/>
<path d="M101.621 169.03L101.621 180.419" stroke="#4A9462" stroke-miterlimit="10"/>
<path d="M107.31 174.725L95.9317 174.725" stroke="#4A9462" stroke-miterlimit="10"/>
<path d="M68.0535 169.03L68.0535 180.419" stroke="#4A9462" stroke-miterlimit="10"/>
<path d="M73.7421 174.725L62.3636 174.725" stroke="#4A9462" stroke-miterlimit="10"/>
<path d="M34.4865 169.03L34.4865 180.419" stroke="#4A9462" stroke-miterlimit="10"/>
<path d="M40.1763 174.725L28.7979 174.725" stroke="#4A9462" stroke-miterlimit="10"/>
<path d="M202.322 202.757L202.322 214.146" stroke="#4A9462" stroke-miterlimit="10"/>
<path d="M208.011 208.451L196.632 208.451" stroke="#4A9462" stroke-miterlimit="10"/>
<path d="M168.755 202.757L168.755 214.146" stroke="#4A9462" stroke-miterlimit="10"/>
<path d="M174.445 208.451L163.066 208.451" stroke="#4A9462" stroke-miterlimit="10"/>
<path d="M135.187 202.757L135.187 214.146" stroke="#8AB7E9" stroke-miterlimit="10"/>
<path d="M140.877 208.451L129.498 208.451" stroke="#8AB7E9" stroke-miterlimit="10"/>
<path d="M101.621 202.757L101.621 214.146" stroke="#4A9462" stroke-miterlimit="10"/>
<path d="M107.31 208.451L95.9317 208.451" stroke="#4A9462" stroke-miterlimit="10"/>
<path d="M68.0535 202.757L68.0535 214.146" stroke="#4A9462" stroke-miterlimit="10"/>
<path d="M73.7421 208.451L62.3636 208.451" stroke="#4A9462" stroke-miterlimit="10"/>
<path d="M34.4865 202.757L34.4865 214.146" stroke="#4A9462" stroke-miterlimit="10"/>
<path d="M40.1763 208.451L28.7979 208.451" stroke="#4A9462" stroke-miterlimit="10"/>
<path d="M202.322 236.498L202.322 247.888" stroke="#4A9462" stroke-miterlimit="10"/>
<path d="M208.011 242.192L196.632 242.192" stroke="#4A9462" stroke-miterlimit="10"/>
<path d="M168.755 236.498L168.755 247.888" stroke="#4A9462" stroke-miterlimit="10"/>
<path d="M174.445 242.192L163.066 242.192" stroke="#4A9462" stroke-miterlimit="10"/>
<path d="M135.187 236.498L135.187 247.888" stroke="#4A9462" stroke-miterlimit="10"/>
<path d="M140.877 242.192L129.498 242.192" stroke="#4A9462" stroke-miterlimit="10"/>
<path d="M101.621 236.498L101.621 247.888" stroke="#4A9462" stroke-miterlimit="10"/>
<path d="M107.31 242.192L95.9317 242.192" stroke="#4A9462" stroke-miterlimit="10"/>
<path d="M202.322 270.224L202.322 281.615" stroke="#4A9462" stroke-miterlimit="10"/>
<path d="M208.011 275.92L196.632 275.92" stroke="#4A9462" stroke-miterlimit="10"/>
<path d="M168.755 270.224L168.755 281.615" stroke="#4A9462" stroke-miterlimit="10"/>
<path d="M174.445 275.92L163.066 275.92" stroke="#4A9462" stroke-miterlimit="10"/>
<path d="M135.187 270.224L135.187 281.615" stroke="#4A9462" stroke-miterlimit="10"/>
<path d="M140.877 275.92L129.498 275.92" stroke="#4A9462" stroke-miterlimit="10"/>
<path d="M101.621 270.224L101.621 281.615" stroke="#4A9462" stroke-miterlimit="10"/>
<path d="M107.31 275.92L95.9318 275.92" stroke="#4A9462" stroke-miterlimit="10"/>
<path d="M68.0535 270.224L68.0535 281.615" stroke="#4A9462" stroke-miterlimit="10"/>
<path d="M73.7421 275.92L62.3636 275.92" stroke="#4A9462" stroke-miterlimit="10"/>
<path d="M135.187 303.952L135.187 315.341" stroke="#4A9462" stroke-miterlimit="10"/>
<path d="M140.877 309.647L129.498 309.647" stroke="#4A9462" stroke-miterlimit="10"/>
<path d="M101.621 303.952L101.621 315.341" stroke="#4A9462" stroke-miterlimit="10"/>
<path d="M107.31 309.647L95.9318 309.647" stroke="#4A9462" stroke-miterlimit="10"/>
<path d="M68.0535 303.952L68.0535 315.341" stroke="#4A9462" stroke-miterlimit="10"/>
<path d="M73.7421 309.647L62.3636 309.647" stroke="#4A9462" stroke-miterlimit="10"/>
<path d="M34.4865 303.952L34.4865 315.341" stroke="#4A9462" stroke-miterlimit="10"/>
<path d="M40.1763 309.647L28.7979 309.647" stroke="#4A9462" stroke-miterlimit="10"/>
<path d="M135.187 337.679L135.187 349.068" stroke="#4A9462" stroke-miterlimit="10"/>
<path d="M140.877 343.373L129.498 343.373" stroke="#4A9462" stroke-miterlimit="10"/>
<path d="M101.621 337.679L101.621 349.068" stroke="#4A9462" stroke-miterlimit="10"/>
<path d="M107.31 343.373L95.9318 343.373" stroke="#4A9462" stroke-miterlimit="10"/>
<path d="M68.0535 337.679L68.0535 349.068" stroke="#4A9462" stroke-miterlimit="10"/>
<path d="M73.7421 343.373L62.3636 343.373" stroke="#4A9462" stroke-miterlimit="10"/>
<path d="M34.4865 337.679L34.4865 349.068" stroke="#4A9462" stroke-miterlimit="10"/>
<path d="M40.1763 343.373L28.7979 343.373" stroke="#4A9462" stroke-miterlimit="10"/>
<path d="M135.187 371.42L135.187 382.81" stroke="#4A9462" stroke-miterlimit="10"/>
<path d="M140.877 377.114L129.498 377.114" stroke="#4A9462" stroke-miterlimit="10"/>
<path d="M101.621 371.42L101.621 382.81" stroke="#4A9462" stroke-miterlimit="10"/>
<path d="M107.31 377.114L95.9318 377.114" stroke="#4A9462" stroke-miterlimit="10"/>
<path d="M68.0535 371.42L68.0535 382.81" stroke="#4A9462" stroke-miterlimit="10"/>
<path d="M73.7421 377.114L62.3637 377.114" stroke="#4A9462" stroke-miterlimit="10"/>
<path d="M34.4865 371.42L34.4865 382.81" stroke="#4A9462" stroke-miterlimit="10"/>
<path d="M40.1763 377.114L28.7979 377.114" stroke="#4A9462" stroke-miterlimit="10"/>
<path d="M68.0535 405.146L68.0535 416.537" stroke="#4A9462" stroke-miterlimit="10"/>
<path d="M73.7421 410.842L62.3637 410.842" stroke="#4A9462" stroke-miterlimit="10"/>
<path d="M34.4865 405.146L34.4865 416.537" stroke="#4A9462" stroke-miterlimit="10"/>
<path d="M40.1763 410.842L28.7979 410.842" stroke="#4A9462" stroke-miterlimit="10"/>
<path d="M202.322 438.874L202.322 450.263" stroke="#4A9462" stroke-miterlimit="10"/>
<path d="M208.011 444.569L196.632 444.569" stroke="#4A9462" stroke-miterlimit="10"/>
<path d="M68.0535 438.874L68.0535 450.263" stroke="#4A9462" stroke-miterlimit="10"/>
<path d="M73.7421 444.569L62.3637 444.569" stroke="#4A9462" stroke-miterlimit="10"/>
<path d="M34.4865 438.874L34.4865 450.263" stroke="#4A9462" stroke-miterlimit="10"/>
<path d="M40.1763 444.569L28.7979 444.569" stroke="#4A9462" stroke-miterlimit="10"/>
</g>
<defs>
<clipPath id="clip0_263_2579">
<rect width="211" height="546" fill="white" transform="matrix(-1 8.74228e-08 8.74228e-08 1 211 0)"/>
</clipPath>
</defs>
</svg>
