<svg width="546" height="211" viewBox="0 0 546 211" fill="none" xmlns="http://www.w3.org/2000/svg">
<g clip-path="url(#clip0_265_2447)">
<path d="M506.229 202.449L0.6408 202.449" stroke="#4A9462" stroke-opacity="0.3" stroke-width="0.75" stroke-miterlimit="10"/>
<path d="M506.229 168.834L0.6408 168.834" stroke="#4A9462" stroke-opacity="0.3" stroke-width="0.75" stroke-miterlimit="10"/>
<path d="M506.229 135.238L0.6408 135.238" stroke="#4A9462" stroke-opacity="0.3" stroke-width="0.75" stroke-miterlimit="10"/>
<path d="M506.229 101.623L0.6408 101.623" stroke="#4A9462" stroke-opacity="0.3" stroke-width="0.75" stroke-miterlimit="10"/>
<path d="M506.229 68.0236L0.6408 68.0236" stroke="#4A9462" stroke-opacity="0.3" stroke-width="0.75" stroke-miterlimit="10"/>
<path d="M506.229 34.411L0.6408 34.411" stroke="#4A9462" stroke-opacity="0.3" stroke-width="0.75" stroke-miterlimit="10"/>
<path d="M506.229 0.812866L0.6408 0.812888" stroke="#4A9462" stroke-opacity="0.3" stroke-width="0.75" stroke-miterlimit="10"/>
<path d="M270.121 236.387L270.121 1.15343" stroke="#4A9462" stroke-opacity="0.3" stroke-width="0.75" stroke-miterlimit="10"/>
<path d="M303.821 236.387L303.821 1.15343" stroke="#4A9462" stroke-opacity="0.3" stroke-width="0.75" stroke-miterlimit="10"/>
<path d="M337.534 236.387L337.534 1.15343" stroke="#4A9462" stroke-opacity="0.3" stroke-width="0.75" stroke-miterlimit="10"/>
<path d="M371.233 236.387L371.233 1.15343" stroke="#4A9462" stroke-opacity="0.3" stroke-width="0.75" stroke-miterlimit="10"/>
<path d="M404.947 236.387L404.947 1.15343" stroke="#4A9462" stroke-opacity="0.3" stroke-width="0.75" stroke-miterlimit="10"/>
<path d="M438.646 236.387L438.646 1.15343" stroke="#4A9462" stroke-opacity="0.3" stroke-width="0.75" stroke-miterlimit="10"/>
<path d="M472.359 236.387L472.359 1.15343" stroke="#4A9462" stroke-opacity="0.3" stroke-width="0.75" stroke-miterlimit="10"/>
<path d="M506.059 236.387L506.059 1.15343" stroke="#4A9462" stroke-opacity="0.3" stroke-width="0.75" stroke-miterlimit="10"/>
<path d="M0.470398 236.387L0.470388 1.15343" stroke="#4A9462" stroke-opacity="0.3" stroke-width="0.75" stroke-miterlimit="10"/>
<path d="M34.17 236.387L34.17 1.15343" stroke="#4A9462" stroke-opacity="0.3" stroke-width="0.75" stroke-miterlimit="10"/>
<path d="M67.8828 236.387L67.8828 1.15343" stroke="#4A9462" stroke-opacity="0.3" stroke-width="0.75" stroke-miterlimit="10"/>
<path d="M101.582 236.387L101.582 1.15343" stroke="#4A9462" stroke-opacity="0.3" stroke-width="0.75" stroke-miterlimit="10"/>
<path d="M135.295 236.387L135.295 1.15343" stroke="#4A9462" stroke-opacity="0.3" stroke-width="0.75" stroke-miterlimit="10"/>
<path d="M168.995 236.387L168.995 1.15343" stroke="#4A9462" stroke-opacity="0.3" stroke-width="0.75" stroke-miterlimit="10"/>
<path d="M202.709 236.387L202.709 1.15343" stroke="#4A9462" stroke-opacity="0.3" stroke-width="0.75" stroke-miterlimit="10"/>
<path d="M236.407 236.387L236.407 1.15343" stroke="#4A9462" stroke-opacity="0.3" stroke-width="0.75" stroke-miterlimit="10"/>
<path d="M545.619 202.322L534.23 202.322" stroke="#4A9462" stroke-miterlimit="10"/>
<path d="M539.924 208.011L539.924 196.632" stroke="#4A9462" stroke-miterlimit="10"/>
<path d="M545.619 168.755L534.23 168.755" stroke="#4A9462" stroke-miterlimit="10"/>
<path d="M539.924 174.445L539.924 163.066" stroke="#4A9462" stroke-miterlimit="10"/>
<path d="M545.619 135.188L534.23 135.188" stroke="#4A9462" stroke-miterlimit="10"/>
<path d="M539.924 140.877L539.924 129.498" stroke="#4A9462" stroke-miterlimit="10"/>
<path d="M511.892 168.755L500.503 168.755" stroke="#FFB548" stroke-miterlimit="10"/>
<path d="M506.198 174.445L506.198 163.066" stroke="#FFB548" stroke-miterlimit="10"/>
<path d="M511.892 135.188L500.503 135.188" stroke="#4A9462" stroke-miterlimit="10"/>
<path d="M506.198 140.877L506.198 129.498" stroke="#4A9462" stroke-miterlimit="10"/>
<path d="M511.892 101.621L500.503 101.621" stroke="#4A9462" stroke-miterlimit="10"/>
<path d="M506.198 107.311L506.198 95.9319" stroke="#4A9462" stroke-miterlimit="10"/>
<path d="M478.165 168.755L466.776 168.755" stroke="#4A9462" stroke-miterlimit="10"/>
<path d="M472.471 174.445L472.471 163.066" stroke="#4A9462" stroke-miterlimit="10"/>
<path d="M478.165 135.188L466.776 135.188" stroke="#4A9462" stroke-miterlimit="10"/>
<path d="M472.471 140.877L472.471 129.498" stroke="#4A9462" stroke-miterlimit="10"/>
<path d="M478.165 101.621L466.776 101.621" stroke="#4A9462" stroke-miterlimit="10"/>
<path d="M472.471 107.311L472.471 95.9319" stroke="#4A9462" stroke-miterlimit="10"/>
<path d="M478.165 68.0536L466.776 68.0536" stroke="#4A9462" stroke-miterlimit="10"/>
<path d="M472.471 73.7422L472.471 62.3638" stroke="#4A9462" stroke-miterlimit="10"/>
<path d="M444.424 202.322L433.035 202.322" stroke="#4A9462" stroke-miterlimit="10"/>
<path d="M438.729 208.011L438.729 196.632" stroke="#4A9462" stroke-miterlimit="10"/>
<path d="M444.424 168.755L433.035 168.755" stroke="#4A9462" stroke-miterlimit="10"/>
<path d="M438.729 174.445L438.729 163.066" stroke="#4A9462" stroke-miterlimit="10"/>
<path d="M444.424 135.188L433.035 135.188" stroke="#4A9462" stroke-miterlimit="10"/>
<path d="M438.729 140.877L438.729 129.498" stroke="#4A9462" stroke-miterlimit="10"/>
<path d="M444.424 101.621L433.035 101.621" stroke="#FFA4B4" stroke-miterlimit="10"/>
<path d="M438.729 107.311L438.729 95.9319" stroke="#FFA4B4" stroke-miterlimit="10"/>
<path d="M444.424 68.0536L433.035 68.0536" stroke="#4A9462" stroke-miterlimit="10"/>
<path d="M438.729 73.7422L438.729 62.3638" stroke="#4A9462" stroke-miterlimit="10"/>
<path d="M410.698 135.188L399.307 135.188" stroke="#4A9462" stroke-miterlimit="10"/>
<path d="M405.002 140.877L405.002 129.498" stroke="#4A9462" stroke-miterlimit="10"/>
<path d="M410.698 101.621L399.307 101.621" stroke="#4A9462" stroke-miterlimit="10"/>
<path d="M405.002 107.311L405.002 95.9319" stroke="#4A9462" stroke-miterlimit="10"/>
<path d="M410.698 68.0536L399.307 68.0536" stroke="#4A9462" stroke-miterlimit="10"/>
<path d="M405.002 73.7422L405.002 62.3638" stroke="#4A9462" stroke-miterlimit="10"/>
<path d="M376.97 135.188L365.581 135.188" stroke="#4A9462" stroke-miterlimit="10"/>
<path d="M371.275 140.877L371.275 129.498" stroke="#4A9462" stroke-miterlimit="10"/>
<path d="M376.97 101.621L365.581 101.621" stroke="#4A9462" stroke-miterlimit="10"/>
<path d="M371.275 107.311L371.275 95.9319" stroke="#4A9462" stroke-miterlimit="10"/>
<path d="M376.97 68.0536L365.581 68.0536" stroke="#4A9462" stroke-miterlimit="10"/>
<path d="M371.275 73.7422L371.275 62.3638" stroke="#4A9462" stroke-miterlimit="10"/>
<path d="M376.97 34.4866L365.581 34.4866" stroke="#4A9462" stroke-miterlimit="10"/>
<path d="M371.275 40.1764L371.275 28.798" stroke="#4A9462" stroke-miterlimit="10"/>
<path d="M343.243 202.322L331.854 202.322" stroke="#4A9462" stroke-miterlimit="10"/>
<path d="M337.549 208.011L337.549 196.632" stroke="#4A9462" stroke-miterlimit="10"/>
<path d="M343.243 168.755L331.854 168.755" stroke="#4A9462" stroke-miterlimit="10"/>
<path d="M337.549 174.445L337.549 163.066" stroke="#4A9462" stroke-miterlimit="10"/>
<path d="M343.243 135.188L331.854 135.188" stroke="#8AB7E9" stroke-miterlimit="10"/>
<path d="M337.549 140.877L337.549 129.498" stroke="#8AB7E9" stroke-miterlimit="10"/>
<path d="M343.243 101.621L331.854 101.621" stroke="#4A9462" stroke-miterlimit="10"/>
<path d="M337.549 107.311L337.549 95.9319" stroke="#4A9462" stroke-miterlimit="10"/>
<path d="M343.243 68.0536L331.854 68.0536" stroke="#4A9462" stroke-miterlimit="10"/>
<path d="M337.549 73.7422L337.549 62.3638" stroke="#4A9462" stroke-miterlimit="10"/>
<path d="M343.243 34.4866L331.854 34.4866" stroke="#4A9462" stroke-miterlimit="10"/>
<path d="M337.549 40.1764L337.549 28.798" stroke="#4A9462" stroke-miterlimit="10"/>
<path d="M309.502 202.322L298.112 202.322" stroke="#4A9462" stroke-miterlimit="10"/>
<path d="M303.808 208.011L303.808 196.632" stroke="#4A9462" stroke-miterlimit="10"/>
<path d="M309.502 168.755L298.112 168.755" stroke="#4A9462" stroke-miterlimit="10"/>
<path d="M303.808 174.445L303.808 163.066" stroke="#4A9462" stroke-miterlimit="10"/>
<path d="M309.502 135.188L298.112 135.188" stroke="#4A9462" stroke-miterlimit="10"/>
<path d="M303.808 140.877L303.808 129.498" stroke="#4A9462" stroke-miterlimit="10"/>
<path d="M309.502 101.621L298.112 101.621" stroke="#4A9462" stroke-miterlimit="10"/>
<path d="M303.808 107.311L303.808 95.9319" stroke="#4A9462" stroke-miterlimit="10"/>
<path d="M275.776 202.322L264.385 202.322" stroke="#4A9462" stroke-miterlimit="10"/>
<path d="M270.08 208.011L270.08 196.632" stroke="#4A9462" stroke-miterlimit="10"/>
<path d="M275.776 168.755L264.385 168.755" stroke="#4A9462" stroke-miterlimit="10"/>
<path d="M270.08 174.445L270.08 163.066" stroke="#4A9462" stroke-miterlimit="10"/>
<path d="M275.776 135.188L264.385 135.188" stroke="#4A9462" stroke-miterlimit="10"/>
<path d="M270.08 140.877L270.08 129.498" stroke="#4A9462" stroke-miterlimit="10"/>
<path d="M275.776 101.621L264.385 101.621" stroke="#4A9462" stroke-miterlimit="10"/>
<path d="M270.08 107.311L270.08 95.9319" stroke="#4A9462" stroke-miterlimit="10"/>
<path d="M275.776 68.0536L264.385 68.0536" stroke="#4A9462" stroke-miterlimit="10"/>
<path d="M270.08 73.7422L270.08 62.3638" stroke="#4A9462" stroke-miterlimit="10"/>
<path d="M242.048 135.188L230.659 135.188" stroke="#4A9462" stroke-miterlimit="10"/>
<path d="M236.353 140.877L236.353 129.498" stroke="#4A9462" stroke-miterlimit="10"/>
<path d="M242.048 101.621L230.659 101.621" stroke="#4A9462" stroke-miterlimit="10"/>
<path d="M236.353 107.311L236.353 95.9319" stroke="#4A9462" stroke-miterlimit="10"/>
<path d="M242.048 68.0536L230.659 68.0536" stroke="#4A9462" stroke-miterlimit="10"/>
<path d="M236.353 73.7422L236.353 62.3638" stroke="#4A9462" stroke-miterlimit="10"/>
<path d="M242.048 34.4866L230.659 34.4866" stroke="#4A9462" stroke-miterlimit="10"/>
<path d="M236.353 40.1764L236.353 28.798" stroke="#4A9462" stroke-miterlimit="10"/>
<path d="M208.321 135.188L196.932 135.188" stroke="#4A9462" stroke-miterlimit="10"/>
<path d="M202.627 140.877L202.627 129.498" stroke="#4A9462" stroke-miterlimit="10"/>
<path d="M208.321 101.621L196.932 101.621" stroke="#4A9462" stroke-miterlimit="10"/>
<path d="M202.627 107.311L202.627 95.9319" stroke="#4A9462" stroke-miterlimit="10"/>
<path d="M208.321 68.0536L196.932 68.0536" stroke="#4A9462" stroke-miterlimit="10"/>
<path d="M202.627 73.7422L202.627 62.3638" stroke="#4A9462" stroke-miterlimit="10"/>
<path d="M208.321 34.4866L196.932 34.4866" stroke="#4A9462" stroke-miterlimit="10"/>
<path d="M202.627 40.1764L202.627 28.798" stroke="#4A9462" stroke-miterlimit="10"/>
<path d="M174.58 135.188L163.19 135.188" stroke="#4A9462" stroke-miterlimit="10"/>
<path d="M168.886 140.877L168.886 129.498" stroke="#4A9462" stroke-miterlimit="10"/>
<path d="M174.58 101.621L163.19 101.621" stroke="#4A9462" stroke-miterlimit="10"/>
<path d="M168.886 107.311L168.886 95.9319" stroke="#4A9462" stroke-miterlimit="10"/>
<path d="M174.58 68.0536L163.19 68.0536" stroke="#4A9462" stroke-miterlimit="10"/>
<path d="M168.886 73.7422L168.886 62.3638" stroke="#4A9462" stroke-miterlimit="10"/>
<path d="M174.58 34.4866L163.19 34.4866" stroke="#4A9462" stroke-miterlimit="10"/>
<path d="M168.886 40.1764L168.886 28.798" stroke="#4A9462" stroke-miterlimit="10"/>
<path d="M140.854 68.0536L129.463 68.0536" stroke="#4A9462" stroke-miterlimit="10"/>
<path d="M135.158 73.7422L135.158 62.3638" stroke="#4A9462" stroke-miterlimit="10"/>
<path d="M140.854 34.4866L129.463 34.4866" stroke="#4A9462" stroke-miterlimit="10"/>
<path d="M135.158 40.1764L135.158 28.798" stroke="#4A9462" stroke-miterlimit="10"/>
<path d="M107.126 202.322L95.7372 202.322" stroke="#4A9462" stroke-miterlimit="10"/>
<path d="M101.431 208.011L101.431 196.632" stroke="#4A9462" stroke-miterlimit="10"/>
<path d="M107.126 68.0536L95.7372 68.0536" stroke="#4A9462" stroke-miterlimit="10"/>
<path d="M101.431 73.7422L101.431 62.3638" stroke="#4A9462" stroke-miterlimit="10"/>
<path d="M107.126 34.4866L95.7372 34.4866" stroke="#4A9462" stroke-miterlimit="10"/>
<path d="M101.431 40.1764L101.431 28.798" stroke="#4A9462" stroke-miterlimit="10"/>
</g>
<defs>
<clipPath id="clip0_265_2447">
<rect width="211" height="546" fill="white" transform="matrix(-4.37114e-08 -1 -1 4.37114e-08 546 211)"/>
</clipPath>
</defs>
</svg>
